<svg width="479" height="479" viewBox="0 0 479 479" fill="none" xmlns="http://www.w3.org/2000/svg">
<circle cx="239" cy="239" r="25" fill="black"/>
<path d="M116 89.9998C126 110 212.5 216 212.5 216C212.5 216 217.08 211.623 220.5 209.5C223.617 207.565 225.496 206.586 229 205.5C233.141 204.217 238.5 204 240 204C241.5 204 249 205.5 249 205.5C249 205.5 254.5 189 249.5 160C248.443 153.872 248 151 247 146.5C246 142 245.126 139.237 243.229 134C241.487 129.194 239.635 125.542 238 122C235 115.5 222.5 93.9997 213 83.9998C203.5 74 190.5 60.9211 164.5 57.5C138.5 54.0788 128 61 128 61C128 61 106 69.9998 116 89.9998Z" fill="black" stroke="black"/>
<path d="M85.5231 356.743C105.879 347.488 215.002 264.962 215.002 264.962C215.002 264.962 210.796 260.224 208.802 256.728C206.983 253.541 206.074 251.628 205.118 248.086C203.989 243.9 203.97 238.537 204.026 237.038C204.081 235.539 205.857 228.099 205.857 228.099C205.857 228.099 189.572 221.994 160.406 225.919C154.243 226.749 151.357 227.086 146.823 227.919C142.289 228.752 139.496 229.523 134.193 231.226C129.325 232.788 125.608 234.505 122.008 236.008C115.401 238.766 93.4539 250.463 83.11 259.587C72.7661 268.711 59.2159 281.219 54.8368 307.075C50.4577 332.931 56.9863 343.68 56.9863 343.68C56.9863 343.68 65.1674 365.997 85.5231 356.743Z" fill="black" stroke="black"/>
<path d="M379.93 107.605C360.565 118.786 259.937 211.48 259.937 211.48C259.937 211.48 264.581 215.789 266.905 219.076C269.022 222.072 270.113 223.889 271.407 227.322C272.935 231.378 273.473 236.715 273.563 238.212C273.653 239.709 272.605 247.286 272.605 247.286C272.605 247.286 289.404 251.787 318.053 245.059C324.107 243.637 326.947 243.023 331.379 241.755C335.811 240.487 338.516 239.449 343.63 237.241C348.324 235.215 351.858 233.148 355.296 231.303C361.604 227.919 382.317 214.154 391.73 204.072C401.143 193.99 413.419 180.23 415.277 154.071C417.134 127.913 409.597 117.847 409.597 117.847C409.597 117.847 399.295 96.4253 379.93 107.605Z" fill="black" stroke="black"/>
<path d="M361.642 388.171C351.667 368.158 265.3 262.049 265.3 262.049C265.3 262.049 260.715 266.421 257.292 268.539C254.173 270.47 252.293 271.447 248.787 272.528C244.644 273.806 239.285 274.016 237.785 274.015C236.285 274.013 228.787 272.503 228.787 272.503C228.787 272.503 223.266 288.996 228.23 318.003C229.279 324.132 229.719 327.004 230.713 331.506C231.707 336.007 232.578 338.771 234.469 344.01C236.204 348.819 238.052 352.473 239.682 356.017C242.674 362.521 255.147 384.037 264.634 394.049C274.122 404.06 287.105 417.156 313.101 420.61C339.096 424.064 349.605 417.156 349.605 417.156C349.605 417.156 371.616 408.183 361.642 388.171Z" fill="black" stroke="black"/>
</svg>
